<svg data-v-fde0c5aa="" xmlns="http://www.w3.org/2000/svg" viewBox="0 0 300 300" class="iconLeftSlogan"><!----><defs data-v-fde0c5aa=""><!----></defs><rect data-v-fde0c5aa="" fill="transparent" x="0" y="0" width="300px" height="300px" class="logo-background-square"></rect><defs data-v-fde0c5aa=""><!----></defs><g data-v-fde0c5aa="" id="b4b11c72-66ca-4495-bbba-f62433bde4ea" fill="#000000" transform="matrix(3.229334140633634,0,0,3.229334140633634,132.89425375766393,116.92033728048384)"><path d="M6.13 6.37L6.13 6.61C6.93 6.61 7.32 6.68 7.32 8.58C7.32 9.94 7.10 10.18 5.46 10.18C3.89 10.18 3.11 9.21 3.11 5.36C3.11 1.51 3.86 0.55 5.46 0.55C7.13 0.55 8.05 1.26 8.46 3.44L8.93 3.44L9.03 1.05C8.16 0.48 6.92 0.31 5.46 0.31C2.44 0.31 0.55 2.58 0.55 5.36C0.55 8.15 2.44 10.42 5.46 10.42C6.96 10.42 8.25 10.16 9.11 9.83C9.11 6.87 9.30 6.61 10.08 6.61L10.08 6.37ZM13.23 1.62C13.23 1.09 12.80 0.67 12.26 0.67C11.73 0.67 11.31 1.09 11.31 1.62C11.31 2.16 11.73 2.58 12.26 2.58C12.80 2.58 13.23 2.16 13.23 1.62ZM13.27 8.58L13.27 3.70L10.82 4.26L10.82 4.49C11.40 4.80 11.54 5.00 11.54 5.47L11.54 8.58C11.54 9.30 11.51 9.88 10.98 10.05L10.98 10.29L13.85 10.29L13.85 10.05C13.34 9.91 13.27 9.37 13.27 8.58ZM22.15 3.74C21.95 3.51 21.63 3.43 21.36 3.49C21.04 3.54 20.45 3.72 20.05 4.31C19.60 3.93 18.96 3.70 18.03 3.70C16.32 3.70 15.34 4.66 15.34 5.80C15.34 6.54 15.79 7.27 16.49 7.57C15.13 8.09 15.15 9.37 15.15 9.37C15.15 10.00 15.50 10.36 15.88 10.54C15.05 10.91 14.20 12.03 14.69 13.05C15.23 14.20 17.78 14.32 19.74 13.23C21.21 12.40 21.28 11.23 21.28 11.23C21.55 9.11 19.92 9.00 18.96 9.00L17.00 9.00C15.51 9.00 16.37 7.85 16.74 7.69C17.08 7.83 17.49 7.90 18.03 7.90C19.75 7.90 20.73 6.93 20.73 5.80C20.73 5.29 20.57 4.83 20.23 4.48C20.47 4.19 20.80 4.12 20.79 4.23C20.76 4.42 20.82 4.62 20.96 4.79C21.25 5.11 21.76 5.15 22.08 4.86C22.41 4.56 22.44 4.06 22.15 3.74ZM17.37 10.88L19.28 10.88C20.30 10.88 20.43 11.62 20.43 11.62C20.43 11.62 20.54 12.46 19.61 13.02C18.30 13.79 16.60 13.45 15.83 12.53C15.83 12.53 14.84 11.41 16.13 10.68C16.67 10.91 17.22 10.88 17.37 10.88ZM18.03 7.66C17.42 7.66 16.98 7.36 16.98 5.80C16.98 4.23 17.33 3.93 18.03 3.93C18.63 3.93 19.10 4.23 19.10 5.80C19.10 7.36 18.68 7.66 18.03 7.66ZM26.63 6.66L25.21 5.78C24.00 5.01 24.39 3.93 25.30 3.93C26.74 3.93 27.19 5.19 27.37 5.68L27.61 5.68L27.61 4.12C27.61 4.12 26.91 3.70 25.30 3.70C23.90 3.70 23.37 4.40 23.37 4.40C22.60 5.40 22.96 6.54 24.32 7.36L25.73 8.22C26.80 8.92 26.63 10.18 25.63 10.18C24.00 10.18 23.55 8.55 23.34 8.01L23.10 8.01L23.10 9.77C23.10 9.77 23.94 10.42 25.63 10.42C27.06 10.42 27.59 9.66 27.59 9.66C28.29 8.65 27.87 7.43 26.63 6.66ZM32.37 9.42C31.67 9.42 31.33 9.02 31.33 8.23L31.33 4.06L32.94 4.06L33.00 3.82L31.33 3.82L31.33 1.65L29.58 1.95L29.58 3.82L28.84 3.82L28.88 4.06L29.58 4.06L29.58 8.27C29.58 9.97 30.24 10.42 31.35 10.42C32.28 10.42 33.14 9.72 33.42 9.06L33.21 8.93C33.08 9.14 32.77 9.42 32.37 9.42ZM37.87 3.77C37.53 3.91 36.96 4.12 36.22 5.28L36.22 3.70L33.75 4.26L33.75 4.49C34.33 4.79 34.45 5.00 34.45 5.47L34.45 8.58C34.45 9.31 34.44 9.88 33.89 10.05L33.89 10.29L36.79 10.29L36.79 10.05C36.29 9.91 36.22 9.37 36.22 8.58L36.22 5.67C36.74 4.83 37.31 4.69 37.31 4.84C37.31 5.10 37.42 5.33 37.63 5.53C38.08 5.91 38.72 5.85 39.10 5.42C39.48 5.00 39.44 4.33 39.00 3.95C38.70 3.70 38.16 3.64 37.87 3.77Z"></path></g><defs data-v-fde0c5aa=""><linearGradient data-v-fde0c5aa="" gradientTransform="rotate(25)" id="ae6f00d6-86a5-4cae-817d-c293c9d912d8" x1="0%" y1="0%" x2="100%" y2="0%"><stop data-v-fde0c5aa="" offset="0%" stop-color="#4B279B" stop-opacity="1"></stop><stop data-v-fde0c5aa="" offset="100%" stop-color="#DF99D8" stop-opacity="1"></stop></linearGradient></defs><g data-v-fde0c5aa="" id="105c1715-5f18-4c1a-a086-1149bd4dd498" stroke="none" fill="url(#ae6f00d6-86a5-4cae-817d-c293c9d912d8)" transform="matrix(0.8507859431163959,0,0,0.8507859431163959,38.159613197865085,107.8330427916695)"><path d="M35.458 55.839L4.744 84.217c-2.203 2.136.275 4.861 2.438 6.446l3.666 2.69c2.171 1.588 5.687 4.09 7.889 1.935L45.25 67.491l-9.792-11.652zM89.423 25.915c-.275-.85-.813-1.612-1.632-2.211l-9.867-7.228c-1.164-.857-2.679-1.204-4.146-1.07-3.012-1.321-4.443-2.753-5.077-3.956.877-1.604.952-3.079.004-3.768l-5.852-4.291c-1.4-1.034-4.491.052-6.898 2.411l-4.932 4.79c-2.418 2.359-3.24 5.097-1.836 6.119l5.855 4.283c.912.672 2.545.437 4.239-.452 4.476 1.164 4.405 3.752 4.405 3.752a4.11 4.11 0 00.055 1.871c-.7 3.154.146 6.25.146 6.25s-1.302 1.262-5.184 5.053c-1.923 1.864-3.193 2.494-3.999 2.643a5.54 5.54 0 00-.681.028c-.244-.044-.394-.13-.456-.186l.232.201a6.985 6.985 0 00-4.016 1.907l-.602.559 1.888 2.273 7.605 8.376 2.635-2.761c1.228-1.195 1.771-2.654 1.66-3.983.338-1.011.613-1.907.613-1.907l6.575-6.246c3.178.319 6.041-.416 8.354-1.438a7.034 7.034 0 002.187-.244c12.443 4.577 10.98 19.148 10.98 19.148 2.769-.185 3.688-3.591 3.688-3.591 7.405-12.402-1.805-22.628-5.943-26.332z"></path><g><path d="M12.971 10.325c-1.75.056.197 1.742.197 1.742l7.811 5.25c2.674 1.447 1.77 3.241 1.77 3.241-1.125 4.35-7.457 6.143-7.457 6.143-1.762.943-2.627-.177-2.627-.177l-7.327-5.306c-3.504-2.1-3.166 2.053-3.166 2.053C4.107 35.361 15.96 35.753 15.96 35.753c4.244.048 6.399.646 7.441 1.098.299.437.645.885 1.093 1.36l7.842 8.743 22.4 26.656a9.753 9.753 0 001.938 1.912c.024 1.108-.185 2.784-1.081 5.309 0 0-3.127 9.675 9.941 14.866 0 0 4.594 1.521 3.272-1.936l-3.783-7.495s-1.011-1.038.586-2.171c0 0 3.929-4.57 9.175-4.169 0 0 2.305-.188 3.135 2.407l3.575 7.873s1.325 2.068 1.915.684c.369-.885 10.834-15.849-10.371-20.461 0 0-4.278-.618-6.732-3.808L44.85 42.994l-9.62-11.605c-2.871-2.938-2.277-6.56-2.277-6.56 1.16-18.475-18.873-14.543-19.982-14.504z"></path></g></g><defs data-v-fde0c5aa=""><!----></defs><g data-v-fde0c5aa="" id="6ce9073c-34a8-409d-a3eb-a91bc336628d" fill="#000000" transform="matrix(0.26322007932693753,0,0,0.26322007932693753,134.59668595098375,171.20994287899282)"><path d="M0.28 3.71L0.28 3.71Q0.28 3.51 0.66 3.51L0.66 3.51Q0.74 3.51 1.20 3.54Q1.65 3.56 2.20 3.56L2.20 3.56Q2.59 3.56 2.98 3.54Q3.37 3.51 3.40 3.51L3.40 3.51Q3.53 3.51 3.56 3.55Q3.60 3.58 3.60 3.68L3.60 3.68Q3.60 3.77 3.30 3.92Q3.00 4.07 3.00 4.34L3.00 4.34Q3.00 4.47 3.05 4.65Q3.11 4.83 3.28 5.22Q3.44 5.61 3.63 6.03Q3.82 6.45 4.21 7.33Q4.61 8.20 4.98 9.07L4.98 9.07Q5.08 9.30 5.27 9.74Q5.46 10.18 5.58 10.46Q5.70 10.74 5.84 11.05Q5.98 11.37 6.07 11.52Q6.16 11.68 6.20 11.68L6.20 11.68Q6.26 11.68 6.65 10.81Q7.04 9.94 7.35 9.17L7.35 9.17Q7.41 9.04 7.48 8.89Q7.56 8.74 7.59 8.63Q7.63 8.53 7.63 8.41L7.63 8.41Q7.63 8.25 6.79 6.36Q5.95 4.48 5.71 4.21L5.71 4.21Q5.66 4.14 5.60 4.10Q5.54 4.06 5.50 4.02Q5.45 3.99 5.41 3.97Q5.38 3.95 5.32 3.94Q5.26 3.93 5.24 3.93Q5.22 3.93 5.16 3.93Q5.10 3.92 5.08 3.92L5.08 3.92Q4.69 3.88 4.61 3.84Q4.52 3.81 4.52 3.70L4.52 3.70Q4.52 3.50 4.93 3.50L4.93 3.50Q5.01 3.50 5.47 3.53Q5.94 3.56 6.47 3.56L6.47 3.56Q6.50 3.56 6.85 3.53Q7.20 3.50 7.39 3.50L7.39 3.50Q7.81 3.50 7.81 3.61L7.81 3.61Q7.81 3.70 7.66 3.78Q7.50 3.86 7.36 4.00Q7.21 4.13 7.21 4.33L7.21 4.33Q7.21 4.59 7.64 5.57L7.64 5.57Q7.67 5.63 7.83 6.03Q7.99 6.44 8.12 6.71Q8.25 6.99 8.30 6.99L8.30 6.99Q8.41 6.99 8.86 5.76Q9.31 4.54 9.31 4.31L9.31 4.31Q9.31 4.06 9.10 3.96Q8.89 3.85 8.68 3.80Q8.47 3.75 8.47 3.64L8.47 3.64Q8.47 3.49 8.78 3.49L8.78 3.49Q8.86 3.49 9.20 3.50Q9.53 3.51 9.67 3.51L9.67 3.51L9.91 3.51Q10.11 3.51 10.65 3.47L10.65 3.47L10.78 3.47Q10.96 3.47 10.96 3.61Q10.96 3.75 10.70 3.84Q10.43 3.92 10.33 4.02L10.33 4.02Q10.11 4.24 9.94 4.66L9.94 4.66Q9.65 5.38 9.24 6.33L9.24 6.33Q8.82 7.31 8.75 7.50Q8.68 7.70 8.68 7.85L8.68 7.85Q8.68 7.97 9.53 9.87Q10.39 11.77 10.54 11.77L10.54 11.77Q10.71 11.77 12.17 8.24Q13.64 4.70 13.64 4.35L13.64 4.35Q13.64 4.13 13.47 4.01Q13.31 3.89 13.12 3.87Q12.92 3.85 12.76 3.80Q12.60 3.75 12.60 3.64L12.60 3.64Q12.60 3.54 12.64 3.52Q12.68 3.50 12.87 3.50L12.87 3.50Q12.91 3.50 13.19 3.51Q13.47 3.51 13.75 3.51L13.75 3.51Q14 3.51 14.31 3.50Q14.63 3.49 14.99 3.49L14.99 3.49Q15.27 3.49 15.27 3.68L15.27 3.68Q15.27 3.78 15.20 3.84Q15.12 3.89 14.97 3.98Q14.81 4.06 14.70 4.17L14.70 4.17Q14.63 4.24 14.58 4.31Q14.53 4.38 14.48 4.49Q14.42 4.59 14.38 4.66Q14.35 4.73 14.27 4.91Q14.20 5.08 14.15 5.18L14.15 5.18Q13.08 7.59 11.75 10.58L11.75 10.58Q10.68 13.01 10.49 13.41Q10.29 13.82 10.18 13.82L10.18 13.82Q10.11 13.82 10.01 13.64Q9.91 13.47 9.74 13.05Q9.56 12.64 9.53 12.57L9.53 12.57Q9.39 12.26 9.16 11.72Q8.93 11.17 8.77 10.79Q8.61 10.42 8.44 10.02Q8.27 9.63 8.16 9.43Q8.05 9.23 8.01 9.23L8.01 9.23Q7.87 9.23 7.06 11.16Q6.26 13.09 6.20 13.31L6.20 13.31Q6.19 13.37 6.17 13.43Q6.15 13.48 6.13 13.52Q6.12 13.57 6.10 13.61Q6.09 13.65 6.08 13.68Q6.06 13.71 6.05 13.73Q6.05 13.76 6.03 13.78Q6.02 13.80 6.01 13.82Q5.99 13.83 5.98 13.84Q5.96 13.85 5.95 13.85Q5.94 13.86 5.91 13.86L5.91 13.86Q5.78 13.86 5.60 13.46Q5.42 13.06 4.94 11.89Q4.47 10.72 3.98 9.65L3.98 9.65Q3.16 7.87 2.25 5.63L2.25 5.63Q1.99 4.96 1.68 4.57Q1.37 4.19 1.13 4.09Q0.90 3.99 0.70 3.98Q0.50 3.96 0.39 3.92Q0.28 3.88 0.28 3.71ZM22.82 3.65L22.82 3.65Q22.82 3.50 23.21 3.50L23.21 3.50Q23.35 3.50 23.86 3.53Q24.36 3.56 24.79 3.56L24.79 3.56Q25.06 3.56 25.30 3.54Q25.55 3.53 26.03 3.53L26.03 3.53Q26.33 3.53 26.33 3.72L26.33 3.72Q26.33 3.96 25.84 3.96L25.84 3.96Q25.56 3.96 25.44 4.54Q25.31 5.11 25.31 5.71L25.31 5.71L25.31 6.23Q25.31 6.57 25.30 6.99Q25.28 7.42 25.28 7.52L25.28 7.52Q25.28 7.87 25.37 7.97Q25.45 8.06 25.76 8.06L25.76 8.06Q25.79 8.06 26.31 8.06Q26.82 8.05 28.06 8.05L28.06 8.05Q28.17 8.05 28.43 8.06Q28.70 8.06 29.31 8.07Q29.92 8.08 30.70 8.08L30.70 8.08Q30.80 8.08 30.83 7.84L30.83 7.84Q30.86 7.56 30.86 6.13L30.86 6.13L30.86 5.38Q30.86 4.83 30.74 4.51Q30.62 4.19 30.44 4.09Q30.27 3.99 30.09 3.96Q29.92 3.93 29.80 3.88Q29.68 3.84 29.68 3.70Q29.68 3.56 30.23 3.56L30.23 3.56Q30.37 3.56 30.83 3.57Q31.29 3.58 31.58 3.58L31.58 3.58Q31.72 3.58 32.06 3.57Q32.40 3.56 32.68 3.56L32.68 3.56Q33.00 3.56 33.00 3.74Q33.00 3.92 32.80 3.92L32.80 3.92Q32.41 3.92 32.21 4.16Q32.00 4.40 32.00 4.79L32.00 4.79Q32.00 5.25 31.98 6.42Q31.96 7.59 31.96 8.19L31.96 8.19Q31.96 8.51 31.95 9.20Q31.93 9.90 31.93 10.29L31.93 10.29L31.93 10.81Q31.93 11.23 31.96 11.58Q31.99 11.94 31.99 12.10L31.99 12.10Q31.99 13.01 33.17 13.13L33.17 13.13Q33.33 13.13 33.33 13.29L33.33 13.29Q33.33 13.38 33.19 13.41Q33.05 13.44 32.65 13.44L32.65 13.44Q32.49 13.44 32.14 13.40Q31.78 13.37 31.57 13.37L31.57 13.37Q31.32 13.37 30.96 13.40Q30.60 13.44 30.25 13.44L30.25 13.44Q30.09 13.44 30.02 13.44Q29.95 13.44 29.87 13.42Q29.79 13.40 29.77 13.36Q29.75 13.33 29.75 13.26L29.75 13.26Q29.75 13.17 29.89 13.10Q30.03 13.03 30.20 12.99Q30.37 12.95 30.53 12.83Q30.69 12.71 30.72 12.53L30.72 12.53Q30.81 12.03 30.81 11.51L30.81 11.51Q30.81 11.37 30.82 11.12Q30.83 10.86 30.83 10.75L30.83 10.75Q30.83 10.50 30.84 9.93Q30.86 9.35 30.86 9.03L30.86 9.03Q30.86 8.82 30.69 8.74Q30.52 8.65 29.97 8.65L29.97 8.65Q29.76 8.65 29.01 8.68L29.01 8.68L28.25 8.69Q27.64 8.69 26.87 8.67Q26.10 8.65 25.68 8.65L25.68 8.65Q25.47 8.65 25.40 8.74Q25.33 8.82 25.33 9.17Q25.33 9.52 25.30 10.08Q25.27 10.64 25.27 10.89L25.27 10.89L25.27 11.49Q25.27 12.10 25.38 12.39Q25.49 12.68 25.93 12.96L25.93 12.96Q26.04 13.03 26.53 13.03L26.53 13.03Q26.63 13.03 26.71 13.08Q26.80 13.13 26.80 13.19L26.80 13.19Q26.80 13.44 26.35 13.44L26.35 13.44Q25.93 13.44 25.66 13.41Q25.38 13.38 25.19 13.38L25.19 13.38Q24.79 13.38 24.35 13.42Q23.90 13.45 23.67 13.45L23.67 13.45Q23.02 13.45 23.02 13.24L23.02 13.24Q23.02 13.12 23.15 13.07Q23.28 13.02 23.45 13.00Q23.62 12.98 23.80 12.82Q23.98 12.66 24.05 12.35L24.05 12.35Q24.09 12.11 24.16 10.91Q24.23 9.70 24.23 8.61L24.23 8.61L24.23 7.81Q24.23 7.63 24.24 7.12Q24.25 6.61 24.25 6.30L24.25 6.30Q24.25 5.24 24.16 4.63L24.16 4.63Q24.12 4.28 23.79 4.09Q23.46 3.89 23.11 3.89L23.11 3.89Q22.97 3.89 22.90 3.80Q22.82 3.71 22.82 3.65ZM40.89 3.65L40.89 3.65Q40.89 3.46 41.29 3.46L41.29 3.46Q41.34 3.46 41.47 3.47Q41.59 3.49 41.66 3.49L41.66 3.49Q41.71 3.49 42.98 3.52Q44.25 3.56 45.08 3.56L45.08 3.56Q45.37 3.56 46.53 3.53Q47.68 3.50 47.88 3.50L47.88 3.50Q48.15 3.50 48.15 3.82L48.15 3.82Q48.15 3.91 48.06 4.38Q47.98 4.84 47.98 5.25L47.98 5.25Q47.98 5.38 47.91 5.47Q47.84 5.56 47.75 5.56L47.75 5.56Q47.54 5.56 47.54 5.26L47.54 5.26Q47.54 4.89 47.31 4.58Q47.07 4.27 46.72 4.26L46.72 4.26Q45.46 4.16 44.79 4.16L44.79 4.16L44.42 4.16Q43.69 4.16 43.57 4.26Q43.46 4.37 43.43 5.01L43.43 5.01Q43.37 6.02 43.37 7.35L43.37 7.35Q43.37 8.05 43.64 8.06L43.64 8.06L43.99 8.06L44.58 8.06L45.01 8.06Q45.85 8.06 46.13 8.01Q46.41 7.95 46.63 7.80L46.63 7.80Q46.90 7.62 46.96 7.28L46.96 7.28Q47.00 7.04 47.15 7.04L47.15 7.04Q47.28 7.04 47.31 7.08Q47.33 7.13 47.33 7.27L47.33 7.27Q47.33 7.36 47.28 7.91Q47.22 8.46 47.22 8.74L47.22 8.74Q47.22 9.00 47.24 9.24Q47.26 9.48 47.26 9.59L47.26 9.59Q47.26 9.94 47.17 9.94L47.17 9.94Q46.96 9.94 46.86 9.60L46.86 9.60Q46.66 9.02 46.51 8.92L46.51 8.92Q46.21 8.72 45.16 8.72L45.16 8.72Q44.74 8.72 44.48 8.72Q44.23 8.72 44.15 8.71Q44.07 8.71 44.02 8.71Q43.97 8.71 43.93 8.71L43.93 8.71Q43.36 8.71 43.36 8.97L43.36 8.97Q43.36 9.38 43.34 9.99Q43.33 10.60 43.33 10.99L43.33 10.99L43.33 11.55Q43.33 12.56 43.67 12.66L43.67 12.66Q44.02 12.77 44.27 12.77L44.27 12.77Q45.32 12.77 46.11 12.67Q46.90 12.57 47.30 12.42Q47.70 12.28 47.96 12.10Q48.23 11.93 48.31 11.78Q48.38 11.63 48.46 11.54Q48.54 11.44 48.62 11.44L48.62 11.44Q48.79 11.44 48.79 11.68L48.79 11.68Q48.79 12.28 48.19 12.89Q47.59 13.51 47.14 13.51L47.14 13.51Q46.13 13.51 44.86 13.44Q43.60 13.37 43.29 13.37L43.29 13.37Q42.90 13.37 42.31 13.43Q41.72 13.50 41.38 13.50L41.38 13.50Q41.09 13.50 41.09 13.36L41.09 13.36Q41.09 13.23 41.09 13.19Q41.09 13.15 41.13 13.12Q41.17 13.09 41.22 13.08Q41.27 13.08 41.40 13.03Q41.54 12.99 41.69 12.92L41.69 12.92Q42.03 12.75 42.13 12.26Q42.24 11.77 42.24 10.21L42.24 10.21L42.24 8.47Q42.24 8.09 42.26 7.29Q42.28 6.50 42.28 6.05L42.28 6.05Q42.28 5.67 42.25 4.77L42.25 4.77Q42.24 4.37 41.90 4.14Q41.57 3.92 41.12 3.91L41.12 3.91Q40.89 3.91 40.89 3.65ZM56.35 3.70L56.35 3.70Q56.35 3.47 56.76 3.47L56.76 3.47L59.08 3.47Q59.40 3.47 59.82 3.45Q60.24 3.43 60.48 3.43L60.48 3.43Q61.74 3.43 62.64 4.07Q63.53 4.70 63.53 5.78L63.53 5.78Q63.53 6.50 63.26 7.03Q62.99 7.57 62.66 7.81Q62.33 8.05 62.05 8.22Q61.78 8.40 61.78 8.46L61.78 8.46Q61.78 8.62 62.96 10.27Q64.13 11.91 64.57 12.38L64.57 12.38Q65.10 13.03 65.86 13.03L65.86 13.03Q66.05 13.03 66.05 13.20L66.05 13.20Q66.05 13.41 65.88 13.48Q65.72 13.55 65.02 13.55L65.02 13.55Q64.36 13.55 63.81 13.23L63.81 13.23Q63.11 12.82 61.45 10.09L61.45 10.09Q61.35 9.94 61.31 9.87L61.31 9.87Q60.63 8.78 60.27 8.78L60.27 8.78L59.98 8.78L59.12 8.78Q58.95 8.78 58.92 8.92Q58.88 9.06 58.88 9.77L58.88 9.77Q58.88 10.44 58.88 10.88Q58.88 11.31 58.89 11.43Q58.90 11.55 58.90 11.63Q58.90 11.70 58.90 11.75L58.90 11.75Q58.90 12.32 59.16 12.63Q59.43 12.95 59.76 13.00Q60.09 13.05 60.35 13.11Q60.62 13.17 60.62 13.31L60.62 13.31Q60.62 13.54 60.37 13.54L60.37 13.54Q60.35 13.54 59.40 13.49Q58.45 13.44 58.37 13.44L58.37 13.44Q57.96 13.44 57.40 13.47Q56.84 13.50 56.83 13.50L56.83 13.50Q56.53 13.50 56.53 13.27L56.53 13.27Q56.53 13.12 56.71 13.05Q56.90 12.99 57.12 12.96Q57.34 12.94 57.53 12.66Q57.71 12.38 57.71 11.86L57.71 11.86Q57.71 11.49 57.71 9.90Q57.72 8.30 57.72 7.45L57.72 7.45Q57.72 6.58 57.71 5.86Q57.71 5.14 57.71 5.08L57.71 5.08Q57.71 4.56 57.50 4.29Q57.29 4.02 57.03 3.98Q56.77 3.95 56.56 3.89Q56.35 3.84 56.35 3.70ZM58.88 5.54L58.88 5.94Q58.88 7.38 58.90 7.72Q58.91 8.06 59.00 8.12L59.00 8.12Q59.21 8.25 59.60 8.25L59.60 8.25L59.74 8.25L60.14 8.25Q61.33 8.25 61.84 7.70Q62.36 7.15 62.36 6.30L62.36 6.30Q62.36 5.43 61.68 4.72Q61.00 4.00 59.63 4.00L59.63 4.00Q59.11 4.00 59.00 4.28Q58.88 4.55 58.88 5.54L58.88 5.54ZM73.40 3.65L73.40 3.65Q73.40 3.46 73.79 3.46L73.79 3.46Q73.85 3.46 73.98 3.47Q74.10 3.49 74.17 3.49L74.17 3.49Q74.21 3.49 75.49 3.52Q76.76 3.56 77.59 3.56L77.59 3.56Q77.88 3.56 79.04 3.53Q80.19 3.50 80.39 3.50L80.39 3.50Q80.65 3.50 80.65 3.82L80.65 3.82Q80.65 3.91 80.57 4.38Q80.49 4.84 80.49 5.25L80.49 5.25Q80.49 5.38 80.42 5.47Q80.35 5.56 80.26 5.56L80.26 5.56Q80.05 5.56 80.05 5.26L80.05 5.26Q80.05 4.89 79.81 4.58Q79.58 4.27 79.23 4.26L79.23 4.26Q77.97 4.16 77.29 4.16L77.29 4.16L76.93 4.16Q76.20 4.16 76.08 4.26Q75.96 4.37 75.94 5.01L75.94 5.01Q75.88 6.02 75.88 7.35L75.88 7.35Q75.88 8.05 76.15 8.06L76.15 8.06L76.50 8.06L77.08 8.06L77.52 8.06Q78.36 8.06 78.64 8.01Q78.92 7.95 79.14 7.80L79.14 7.80Q79.41 7.62 79.46 7.28L79.46 7.28Q79.51 7.04 79.66 7.04L79.66 7.04Q79.79 7.04 79.81 7.08Q79.84 7.13 79.84 7.27L79.84 7.27Q79.84 7.36 79.79 7.91Q79.73 8.46 79.73 8.74L79.73 8.74Q79.73 9.00 79.75 9.24Q79.77 9.48 79.77 9.59L79.77 9.59Q79.77 9.94 79.67 9.94L79.67 9.94Q79.46 9.94 79.37 9.60L79.37 9.60Q79.17 9.02 79.02 8.92L79.02 8.92Q78.72 8.72 77.67 8.72L77.67 8.72Q77.25 8.72 76.99 8.72Q76.73 8.72 76.66 8.71Q76.58 8.71 76.53 8.71Q76.48 8.71 76.44 8.71L76.44 8.71Q75.87 8.71 75.87 8.97L75.87 8.97Q75.87 9.38 75.85 9.99Q75.84 10.60 75.84 10.99L75.84 10.99L75.84 11.55Q75.84 12.56 76.17 12.66L76.17 12.66Q76.52 12.77 76.78 12.77L76.78 12.77Q77.83 12.77 78.62 12.67Q79.41 12.57 79.81 12.42Q80.21 12.28 80.47 12.10Q80.74 11.93 80.81 11.78Q80.89 11.63 80.97 11.54Q81.05 11.44 81.13 11.44L81.13 11.44Q81.30 11.44 81.30 11.68L81.30 11.68Q81.30 12.28 80.70 12.89Q80.09 13.51 79.65 13.51L79.65 13.51Q78.64 13.51 77.37 13.44Q76.10 13.37 75.80 13.37L75.80 13.37Q75.40 13.37 74.82 13.43Q74.23 13.50 73.89 13.50L73.89 13.50Q73.60 13.50 73.60 13.36L73.60 13.36Q73.60 13.23 73.60 13.19Q73.60 13.15 73.64 13.12Q73.68 13.09 73.73 13.08Q73.78 13.08 73.91 13.03Q74.05 12.99 74.20 12.92L74.20 12.92Q74.54 12.75 74.64 12.26Q74.75 11.77 74.75 10.21L74.75 10.21L74.75 8.47Q74.75 8.09 74.77 7.29Q74.79 6.50 74.79 6.05L74.79 6.05Q74.79 5.67 74.76 4.77L74.76 4.77Q74.75 4.37 74.41 4.14Q74.07 3.92 73.63 3.91L73.63 3.91Q73.40 3.91 73.40 3.65ZM98.84 5.32L98.84 5.32Q98.84 4.76 98.98 3.88L98.98 3.88Q98.98 3.85 98.99 3.78Q98.99 3.71 99.00 3.69Q99.01 3.67 99.01 3.62Q99.02 3.57 99.04 3.55Q99.05 3.53 99.07 3.49Q99.09 3.46 99.12 3.44Q99.15 3.43 99.19 3.42Q99.23 3.40 99.29 3.39Q99.34 3.39 99.41 3.39L99.41 3.39Q99.64 3.39 100.60 3.44Q101.56 3.50 103.36 3.50L103.36 3.50Q106.44 3.50 107.67 3.43L107.67 3.43Q107.69 3.43 107.72 3.42Q107.76 3.42 107.77 3.42L107.77 3.42Q107.93 3.42 107.98 3.50Q108.04 3.58 108.04 3.65L108.04 3.65Q108.04 3.75 108.08 4.24Q108.12 4.73 108.12 4.79L108.12 4.79Q108.12 5.14 108.08 5.23Q108.04 5.32 107.90 5.32L107.90 5.32Q107.79 5.32 107.74 5.15L107.74 5.15Q107.63 4.75 107.55 4.60Q107.46 4.45 107.18 4.34Q106.90 4.23 106.33 4.23L106.33 4.23L104.51 4.23Q104.17 4.23 104.10 4.36Q104.02 4.49 104.02 5.12L104.02 5.12L104.02 5.81Q104.02 7.69 104.00 9.11Q103.98 10.54 103.98 10.93L103.98 10.93Q103.98 11.13 103.97 11.43Q103.96 11.73 103.96 11.84L103.96 11.84Q103.96 12.45 104.16 12.64L104.16 12.64Q104.34 12.81 104.57 12.90Q104.79 12.99 104.95 13.01Q105.11 13.02 105.22 13.08Q105.34 13.13 105.34 13.26L105.34 13.26Q105.34 13.41 105.27 13.45Q105.20 13.50 105.00 13.50L105.00 13.50Q104.83 13.50 104.26 13.44Q103.68 13.38 103.45 13.38L103.45 13.38Q103.28 13.38 102.77 13.43Q102.26 13.48 102.02 13.48L102.02 13.48Q101.50 13.48 101.50 13.26L101.50 13.26Q101.50 13.12 101.58 13.07Q101.67 13.02 101.91 12.98Q102.16 12.95 102.23 12.94L102.23 12.94Q102.70 12.82 102.76 12.38L102.76 12.38Q102.90 11.14 102.90 7.08L102.90 7.08L102.89 4.58Q102.89 4.31 102.73 4.25Q102.58 4.19 101.82 4.19L101.82 4.19Q100.84 4.19 100.34 4.24Q99.85 4.30 99.76 4.35Q99.68 4.40 99.57 4.54L99.57 4.54Q99.44 4.70 99.36 4.91Q99.29 5.11 99.27 5.24Q99.25 5.38 99.18 5.47Q99.12 5.56 98.99 5.56L98.99 5.56Q98.84 5.56 98.84 5.32ZM114.45 13.33L114.45 13.33Q114.45 13.13 114.66 13.06L114.66 13.06Q115.11 12.89 115.44 12.31Q115.78 11.73 117.11 8.83L117.11 8.83Q118.48 5.87 119.53 3.63L119.53 3.63Q119.63 3.42 119.71 3.36Q119.78 3.30 119.95 3.30L119.95 3.30Q120.08 3.30 120.12 3.36Q120.16 3.42 120.30 3.82L120.30 3.82Q120.39 4.06 120.45 4.23Q120.51 4.40 120.65 4.77Q120.79 5.15 120.96 5.56L120.96 5.56Q121.41 6.66 122.51 9.22Q123.61 11.77 123.70 11.98L123.70 11.98Q123.94 12.46 124.24 12.71Q124.53 12.95 124.75 12.97Q124.96 12.99 125.11 13.04Q125.26 13.09 125.26 13.26L125.26 13.26Q125.26 13.47 124.88 13.47L124.88 13.47Q124.73 13.47 124.28 13.43Q123.83 13.38 123.62 13.38L123.62 13.38Q123.35 13.38 122.93 13.41Q122.51 13.44 122.32 13.44L122.32 13.44Q121.88 13.44 121.76 13.40Q121.65 13.37 121.65 13.24L121.65 13.24Q121.65 13.15 121.76 13.08Q121.87 13.02 122.00 13.00Q122.12 12.98 122.23 12.87Q122.35 12.77 122.35 12.59L122.35 12.59Q122.35 12.28 122.00 11.33Q121.65 10.37 121.41 9.93L121.41 9.93Q121.28 9.69 120.83 9.69L120.83 9.69Q120.76 9.69 120.22 9.70Q119.67 9.72 119.14 9.72L119.14 9.72L118.40 9.72Q117.77 9.72 117.61 9.79Q117.45 9.86 117.32 10.12L117.32 10.12Q117.24 10.30 117.04 10.70Q116.84 11.10 116.77 11.26Q116.70 11.41 116.60 11.65Q116.49 11.90 116.46 12.05Q116.42 12.19 116.42 12.31L116.42 12.31Q116.42 12.63 116.58 12.80Q116.75 12.96 116.94 12.98Q117.14 13.01 117.30 13.06Q117.46 13.12 117.46 13.26L117.46 13.26Q117.46 13.36 117.42 13.40Q117.38 13.45 117.22 13.45L117.22 13.45Q117.14 13.45 116.74 13.45Q116.34 13.44 116.06 13.44L116.06 13.44Q115.75 13.44 115.37 13.47Q114.98 13.50 114.86 13.50L114.86 13.50Q114.45 13.50 114.45 13.33ZM117.96 8.71L117.96 8.71Q117.96 8.89 118.09 8.93Q118.22 8.97 118.68 8.97L118.68 8.97L119.11 8.97L120.44 8.96Q120.99 8.96 120.99 8.74L120.99 8.74Q120.99 8.55 120.30 7.01Q119.62 5.46 119.43 5.46L119.43 5.46Q119.31 5.46 118.64 7.01Q117.96 8.55 117.96 8.71ZM132.82 3.71L132.82 3.71Q132.82 3.46 133.20 3.46L133.20 3.46Q133.25 3.46 133.38 3.47Q133.50 3.49 133.57 3.49L133.57 3.49Q133.71 3.49 134.10 3.51Q134.48 3.54 134.79 3.54L134.79 3.54Q135.23 3.54 135.72 3.51Q136.21 3.49 136.26 3.49L136.26 3.49Q136.50 3.49 136.50 3.63L136.50 3.63Q136.50 3.82 136.33 3.88Q136.16 3.95 135.96 3.97Q135.76 3.99 135.57 4.28Q135.38 4.56 135.35 5.14L135.35 5.14Q135.32 5.68 135.28 8.19Q135.24 10.70 135.24 10.99L135.24 10.99L135.24 11.55Q135.24 12.56 135.58 12.66L135.58 12.66Q135.93 12.77 136.18 12.77L136.18 12.77Q137.23 12.77 138.02 12.67Q138.81 12.57 139.21 12.42Q139.61 12.28 139.87 12.10Q140.14 11.93 140.22 11.78Q140.29 11.63 140.37 11.54Q140.45 11.44 140.53 11.44L140.53 11.44Q140.70 11.44 140.70 11.68L140.70 11.68Q140.70 12.28 140.10 12.89Q139.50 13.51 139.05 13.51L139.05 13.51Q138.04 13.51 136.77 13.44Q135.51 13.37 135.20 13.37L135.20 13.37Q134.81 13.37 134.29 13.43Q133.78 13.48 133.45 13.48L133.45 13.48Q133.04 13.48 133.04 13.31L133.04 13.31Q133.04 13.22 133.12 13.15Q133.20 13.09 133.27 13.09L133.27 13.09Q133.48 13.09 133.67 12.95L133.67 12.95Q133.92 12.75 134.04 12.23Q134.15 11.70 134.15 10.21L134.15 10.21L134.15 8.47Q134.15 8.09 134.17 7.29Q134.19 6.50 134.19 6.05L134.19 6.05Q134.19 5.67 134.16 4.77L134.16 4.77Q134.15 4.37 133.81 4.14Q133.48 3.92 133.03 3.91L133.03 3.91Q132.89 3.91 132.85 3.86Q132.82 3.81 132.82 3.71ZM148.26 3.65L148.26 3.65Q148.26 3.46 148.65 3.46L148.65 3.46Q148.71 3.46 148.83 3.47Q148.96 3.49 149.03 3.49L149.03 3.49Q149.07 3.49 150.35 3.52Q151.62 3.56 152.45 3.56L152.45 3.56Q152.74 3.56 153.89 3.53Q155.05 3.50 155.25 3.50L155.25 3.50Q155.51 3.50 155.51 3.82L155.51 3.82Q155.51 3.91 155.43 4.38Q155.34 4.84 155.34 5.25L155.34 5.25Q155.34 5.38 155.27 5.47Q155.20 5.56 155.12 5.56L155.12 5.56Q154.91 5.56 154.91 5.26L154.91 5.26Q154.91 4.89 154.67 4.58Q154.43 4.27 154.08 4.26L154.08 4.26Q152.82 4.16 152.15 4.16L152.15 4.16L151.79 4.16Q151.06 4.16 150.94 4.26Q150.82 4.37 150.79 5.01L150.79 5.01Q150.74 6.02 150.74 7.35L150.74 7.35Q150.74 8.05 151.00 8.06L151.00 8.06L151.35 8.06L151.94 8.06L152.38 8.06Q153.22 8.06 153.50 8.01Q153.78 7.95 154 7.80L154 7.80Q154.27 7.62 154.32 7.28L154.32 7.28Q154.36 7.04 154.52 7.04L154.52 7.04Q154.64 7.04 154.67 7.08Q154.70 7.13 154.70 7.27L154.70 7.27Q154.70 7.36 154.64 7.91Q154.59 8.46 154.59 8.74L154.59 8.74Q154.59 9.00 154.61 9.24Q154.63 9.48 154.63 9.59L154.63 9.59Q154.63 9.94 154.53 9.94L154.53 9.94Q154.32 9.94 154.22 9.60L154.22 9.60Q154.03 9.02 153.87 8.92L153.87 8.92Q153.58 8.72 152.53 8.72L152.53 8.72Q152.11 8.72 151.85 8.72Q151.59 8.72 151.51 8.71Q151.44 8.71 151.39 8.71Q151.34 8.71 151.30 8.71L151.30 8.71Q150.72 8.71 150.72 8.97L150.72 8.97Q150.72 9.38 150.71 9.99Q150.70 10.60 150.70 10.99L150.70 10.99L150.70 11.55Q150.70 12.56 151.03 12.66L151.03 12.66Q151.38 12.77 151.63 12.77L151.63 12.77Q152.68 12.77 153.47 12.67Q154.27 12.57 154.66 12.42Q155.06 12.28 155.33 12.10Q155.60 11.93 155.67 11.78Q155.75 11.63 155.83 11.54Q155.90 11.44 155.99 11.44L155.99 11.44Q156.16 11.44 156.16 11.68L156.16 11.68Q156.16 12.28 155.55 12.89Q154.95 13.51 154.50 13.51L154.50 13.51Q153.50 13.51 152.23 13.44Q150.96 13.37 150.65 13.37L150.65 13.37Q150.26 13.37 149.67 13.43Q149.09 13.50 148.75 13.50L148.75 13.50Q148.46 13.50 148.46 13.36L148.46 13.36Q148.46 13.23 148.46 13.19Q148.46 13.15 148.50 13.12Q148.54 13.09 148.59 13.08Q148.64 13.08 148.77 13.03Q148.90 12.99 149.06 12.92L149.06 12.92Q149.39 12.75 149.50 12.26Q149.60 11.77 149.60 10.21L149.60 10.21L149.60 8.47Q149.60 8.09 149.63 7.29Q149.65 6.50 149.65 6.05L149.65 6.05Q149.65 5.67 149.62 4.77L149.62 4.77Q149.60 4.37 149.27 4.14Q148.93 3.92 148.48 3.91L148.48 3.91Q148.26 3.91 148.26 3.65ZM163.72 3.77L163.72 3.77Q163.72 3.68 163.81 3.60Q163.91 3.53 164.07 3.53L164.07 3.53Q164.15 3.53 164.35 3.54Q164.54 3.54 164.60 3.54L164.60 3.54Q164.81 3.54 164.99 3.53Q165.17 3.51 165.28 3.51L165.28 3.51Q165.41 3.51 165.58 3.59Q165.75 3.67 165.77 3.75L165.77 3.75Q165.80 3.79 165.93 3.94Q166.05 4.09 166.26 4.33Q166.47 4.56 166.64 4.79L166.64 4.79Q168.55 7.27 171.74 10.77L171.74 10.77Q171.82 10.86 171.94 10.99Q172.06 11.12 172.11 11.18Q172.16 11.24 172.21 11.30Q172.27 11.35 172.30 11.38Q172.34 11.40 172.37 11.40L172.37 11.40Q172.51 11.40 172.51 10.53L172.51 10.53L172.51 8.89Q172.51 7.95 172.50 7.31Q172.49 6.66 172.49 6.38Q172.48 6.09 172.48 6.02L172.48 6.02L172.48 5.92Q172.48 5.45 172.42 5.11Q172.35 4.77 172.27 4.59Q172.19 4.41 172.02 4.28Q171.86 4.16 171.75 4.12Q171.64 4.09 171.43 4.05Q171.22 4.00 171.14 3.98L171.14 3.98Q170.86 3.89 170.86 3.74L170.86 3.74Q170.86 3.53 171.12 3.53L171.12 3.53Q171.21 3.53 171.79 3.54Q172.38 3.54 172.45 3.54L172.45 3.54Q172.79 3.54 173.20 3.53Q173.61 3.51 173.71 3.51L173.71 3.51Q173.95 3.51 174.04 3.56Q174.13 3.61 174.13 3.75L174.13 3.75Q174.13 3.81 174.05 3.86Q173.98 3.91 173.89 3.94Q173.81 3.98 173.73 4.00L173.73 4.00L173.64 4.03Q173.18 4.28 173.18 5.61L173.18 5.61L173.18 6.15Q173.18 7.21 173.10 9.83Q173.03 12.46 173.03 13.08L173.03 13.08L173.03 13.36Q173.03 13.68 172.83 13.68L172.83 13.68Q172.70 13.68 172.61 13.58L172.61 13.58Q167.96 8.19 167.05 7.17Q166.15 6.16 166.05 6.16L166.05 6.16Q165.91 6.16 165.91 7.11L165.91 7.11Q165.91 8.44 165.86 9.97Q165.80 11.51 165.80 11.65L165.80 11.65Q165.80 12.28 166.02 12.61Q166.24 12.94 166.49 12.98Q166.74 13.02 166.96 13.07Q167.17 13.12 167.17 13.26L167.17 13.26Q167.17 13.41 167.12 13.45Q167.08 13.50 166.95 13.50L166.95 13.50Q166.85 13.50 166.51 13.48Q166.17 13.47 165.45 13.47L165.45 13.47Q165.33 13.47 164.93 13.48Q164.54 13.50 164.26 13.50L164.26 13.50Q163.95 13.50 163.95 13.27L163.95 13.27Q163.95 13.15 164.14 13.11Q164.32 13.08 164.58 12.89Q164.85 12.71 164.99 12.21L164.99 12.21Q165.07 11.89 165.20 9.60Q165.33 7.32 165.33 6.45L165.33 6.45Q165.33 5.25 164.99 4.65Q164.65 4.06 163.90 3.98L163.90 3.98Q163.72 3.96 163.72 3.77ZM181.89 5.32L181.89 5.32Q181.89 4.76 182.03 3.88L182.03 3.88Q182.03 3.85 182.03 3.78Q182.04 3.71 182.05 3.69Q182.06 3.67 182.06 3.62Q182.07 3.57 182.08 3.55Q182.10 3.53 182.12 3.49Q182.14 3.46 182.17 3.44Q182.20 3.43 182.24 3.42Q182.28 3.40 182.34 3.39Q182.39 3.39 182.46 3.39L182.46 3.39Q182.69 3.39 183.64 3.44Q184.60 3.50 186.41 3.50L186.41 3.50Q189.49 3.50 190.72 3.43L190.72 3.43Q190.74 3.43 190.77 3.42Q190.81 3.42 190.82 3.42L190.82 3.42Q190.97 3.42 191.03 3.50Q191.09 3.58 191.09 3.65L191.09 3.65Q191.09 3.75 191.13 4.24Q191.17 4.73 191.17 4.79L191.17 4.79Q191.17 5.14 191.13 5.23Q191.09 5.32 190.95 5.32L190.95 5.32Q190.83 5.32 190.79 5.15L190.79 5.15Q190.68 4.75 190.60 4.60Q190.51 4.45 190.23 4.34Q189.95 4.23 189.38 4.23L189.38 4.23L187.56 4.23Q187.22 4.23 187.14 4.36Q187.07 4.49 187.07 5.12L187.07 5.12L187.07 5.81Q187.07 7.69 187.05 9.11Q187.03 10.54 187.03 10.93L187.03 10.93Q187.03 11.13 187.02 11.43Q187.01 11.73 187.01 11.84L187.01 11.84Q187.01 12.45 187.21 12.64L187.21 12.64Q187.39 12.81 187.61 12.90Q187.84 12.99 188.00 13.01Q188.16 13.02 188.27 13.08Q188.38 13.13 188.38 13.26L188.38 13.26Q188.38 13.41 188.31 13.45Q188.24 13.50 188.05 13.50L188.05 13.50Q187.88 13.50 187.31 13.44Q186.73 13.38 186.49 13.38L186.49 13.38Q186.33 13.38 185.81 13.43Q185.30 13.48 185.07 13.48L185.07 13.48Q184.55 13.48 184.55 13.26L184.55 13.26Q184.55 13.12 184.63 13.07Q184.72 13.02 184.96 12.98Q185.21 12.95 185.28 12.94L185.28 12.94Q185.75 12.82 185.81 12.38L185.81 12.38Q185.95 11.14 185.95 7.08L185.95 7.08L185.93 4.58Q185.93 4.31 185.78 4.25Q185.63 4.19 184.87 4.19L184.87 4.19Q183.89 4.19 183.39 4.24Q182.90 4.30 182.81 4.35Q182.73 4.40 182.62 4.54L182.62 4.54Q182.49 4.70 182.41 4.91Q182.34 5.11 182.31 5.24Q182.29 5.38 182.23 5.47Q182.17 5.56 182.04 5.56L182.04 5.56Q181.89 5.56 181.89 5.32ZM208.71 3.71L208.71 3.71Q208.71 3.50 208.96 3.50L208.96 3.50Q209.05 3.50 209.35 3.53Q209.65 3.56 209.71 3.56L209.71 3.56Q209.92 3.56 210.28 3.54Q210.64 3.53 210.76 3.53L210.76 3.53Q211.02 3.53 211.09 3.72L211.09 3.72Q211.26 4.09 211.69 5.03Q212.13 5.98 212.39 6.54Q212.65 7.10 213.05 7.97Q213.46 8.83 213.71 9.37Q213.96 9.91 214.23 10.46Q214.51 11.00 214.66 11.26Q214.80 11.52 214.84 11.52Q214.89 11.52 214.94 11.47Q214.98 11.42 215.03 11.34Q215.08 11.26 215.12 11.17Q215.15 11.09 215.21 10.96Q215.28 10.82 215.31 10.75L215.31 10.75L217.11 7.03Q217.42 6.40 217.66 5.89Q217.90 5.39 218.04 5.08Q218.18 4.77 218.27 4.55Q218.37 4.33 218.42 4.21Q218.47 4.10 218.49 4.04Q218.51 3.98 218.53 3.94Q218.54 3.91 218.55 3.88Q218.57 3.85 218.60 3.75Q218.64 3.65 218.67 3.62Q218.71 3.58 218.81 3.54Q218.92 3.50 219.09 3.50L219.09 3.50Q219.35 3.50 219.58 3.51Q219.81 3.53 220.29 3.53L220.29 3.53Q220.53 3.53 220.53 3.71L220.53 3.71Q220.53 3.85 220.44 3.91Q220.35 3.98 220.07 4.02L220.07 4.02Q219.72 4.06 219.58 4.37Q219.44 4.68 219.44 5.54L219.44 5.54Q219.44 7.43 219.52 8.97Q219.60 10.50 219.60 10.89L219.60 10.89Q219.60 12.29 219.83 12.68Q220.05 13.06 220.77 13.06L220.77 13.06Q220.86 13.06 220.94 13.13Q221.02 13.20 221.02 13.26L221.02 13.26Q221.02 13.34 221.00 13.38Q220.99 13.43 220.95 13.45Q220.91 13.48 220.86 13.48Q220.82 13.48 220.71 13.48L220.71 13.48Q220.29 13.48 219.88 13.45Q219.48 13.43 219.28 13.43L219.28 13.43Q218.89 13.43 218.47 13.46Q218.05 13.50 217.83 13.50L217.83 13.50Q217.57 13.50 217.57 13.30L217.57 13.30Q217.57 13.17 217.69 13.12Q217.80 13.06 217.94 13.05Q218.09 13.03 218.25 12.87Q218.41 12.71 218.48 12.39L218.48 12.39Q218.54 12.11 218.54 11.49L218.54 11.49Q218.54 11.05 218.52 10.42Q218.50 9.79 218.47 9.19Q218.44 8.60 218.41 8.07Q218.39 7.55 218.37 7.21L218.37 7.21L218.34 6.87Q218.34 6.27 218.22 6.27L218.22 6.27Q218.20 6.27 218.18 6.29Q218.15 6.30 218.13 6.33Q218.11 6.36 218.08 6.38Q218.05 6.41 218.02 6.47Q217.99 6.54 217.97 6.58Q217.94 6.62 217.90 6.70Q217.85 6.78 217.83 6.83Q217.80 6.89 217.75 6.99Q217.70 7.08 217.67 7.15L217.67 7.15L215.73 11.09Q215.39 11.77 215.01 12.56L215.01 12.56Q214.76 13.09 214.70 13.18Q214.65 13.27 214.56 13.27L214.56 13.27Q214.44 13.27 214.35 13.15Q214.27 13.03 214.10 12.63Q213.93 12.22 213.81 11.96L213.81 11.96Q211.25 6.75 211.18 6.65L211.18 6.65Q211.13 6.59 211.09 6.59L211.09 6.59Q210.98 6.59 210.98 7.15L210.98 7.15Q210.97 8.25 210.91 9.31Q210.85 10.37 210.85 10.85L210.85 10.85L210.85 11.48Q210.85 11.84 210.88 12.04Q210.90 12.24 210.99 12.49Q211.08 12.75 211.32 12.89Q211.55 13.03 211.93 13.08L211.93 13.08Q212.00 13.08 212.06 13.13Q212.13 13.17 212.13 13.23L212.13 13.23Q212.13 13.38 212.09 13.43Q212.04 13.48 211.92 13.48L211.92 13.48Q211.64 13.48 211.08 13.45Q210.52 13.43 210.46 13.43L210.46 13.43Q210.43 13.43 210.06 13.45Q209.68 13.47 209.31 13.47L209.31 13.47Q209.20 13.47 209.15 13.45Q209.10 13.44 209.06 13.39Q209.02 13.34 209.02 13.24L209.02 13.24Q209.02 13.13 209.15 13.09Q209.27 13.05 209.43 13.04Q209.59 13.03 209.79 12.82Q209.99 12.60 210.08 12.18L210.08 12.18Q210.15 11.87 210.25 9.74Q210.35 7.62 210.35 6.59L210.35 6.59Q210.35 5.19 210.08 4.66Q209.80 4.13 208.89 3.92L208.89 3.92Q208.71 3.88 208.71 3.71ZM228.58 3.65L228.58 3.65Q228.58 3.46 228.97 3.46L228.97 3.46Q229.03 3.46 229.15 3.47Q229.28 3.49 229.35 3.49L229.35 3.49Q229.39 3.49 230.66 3.52Q231.94 3.56 232.76 3.56L232.76 3.56Q233.06 3.56 234.21 3.53Q235.37 3.50 235.56 3.50L235.56 3.50Q235.83 3.50 235.83 3.82L235.83 3.82Q235.83 3.91 235.75 4.38Q235.66 4.84 235.66 5.25L235.66 5.25Q235.66 5.38 235.59 5.47Q235.52 5.56 235.44 5.56L235.44 5.56Q235.23 5.56 235.23 5.26L235.23 5.26Q235.23 4.89 234.99 4.58Q234.75 4.27 234.40 4.26L234.40 4.26Q233.14 4.16 232.47 4.16L232.47 4.16L232.11 4.16Q231.38 4.16 231.26 4.26Q231.14 4.37 231.11 5.01L231.11 5.01Q231.06 6.02 231.06 7.35L231.06 7.35Q231.06 8.05 231.32 8.06L231.32 8.06L231.67 8.06L232.26 8.06L232.69 8.06Q233.53 8.06 233.81 8.01Q234.09 7.95 234.32 7.80L234.32 7.80Q234.58 7.62 234.64 7.28L234.64 7.28Q234.68 7.04 234.84 7.04L234.84 7.04Q234.96 7.04 234.99 7.08Q235.02 7.13 235.02 7.27L235.02 7.27Q235.02 7.36 234.96 7.91Q234.91 8.46 234.91 8.74L234.91 8.74Q234.91 9.00 234.93 9.24Q234.95 9.48 234.95 9.59L234.95 9.59Q234.95 9.94 234.85 9.94L234.85 9.94Q234.64 9.94 234.54 9.60L234.54 9.60Q234.35 9.02 234.19 8.92L234.19 8.92Q233.90 8.72 232.85 8.72L232.85 8.72Q232.43 8.72 232.17 8.72Q231.91 8.72 231.83 8.71Q231.76 8.71 231.71 8.71Q231.66 8.71 231.62 8.71L231.62 8.71Q231.04 8.71 231.04 8.97L231.04 8.97Q231.04 9.38 231.03 9.99Q231.01 10.60 231.01 10.99L231.01 10.99L231.01 11.55Q231.01 12.56 231.35 12.66L231.35 12.66Q231.70 12.77 231.95 12.77L231.95 12.77Q233.00 12.77 233.79 12.67Q234.58 12.57 234.98 12.42Q235.38 12.28 235.65 12.10Q235.91 11.93 235.99 11.78Q236.07 11.63 236.15 11.54Q236.22 11.44 236.31 11.44L236.31 11.44Q236.47 11.44 236.47 11.68L236.47 11.68Q236.47 12.28 235.87 12.89Q235.27 13.51 234.82 13.51L234.82 13.51Q233.81 13.51 232.55 13.44Q231.28 13.37 230.97 13.37L230.97 13.37Q230.58 13.37 229.99 13.43Q229.40 13.50 229.07 13.50L229.07 13.50Q228.77 13.50 228.77 13.36L228.77 13.36Q228.77 13.23 228.77 13.19Q228.77 13.15 228.82 13.12Q228.86 13.09 228.91 13.08Q228.96 13.08 229.09 13.03Q229.22 12.99 229.38 12.92L229.38 12.92Q229.71 12.75 229.82 12.26Q229.92 11.77 229.92 10.21L229.92 10.21L229.92 8.47Q229.92 8.09 229.94 7.29Q229.96 6.50 229.96 6.05L229.96 6.05Q229.96 5.67 229.94 4.77L229.94 4.77Q229.92 4.37 229.59 4.14Q229.25 3.92 228.80 3.91L228.80 3.91Q228.58 3.91 228.58 3.65ZM244.03 3.65L244.03 3.65Q244.03 3.46 244.43 3.46L244.43 3.46Q244.48 3.46 244.61 3.47Q244.73 3.49 244.80 3.49L244.80 3.49Q244.85 3.49 246.12 3.52Q247.39 3.56 248.22 3.56L248.22 3.56Q248.51 3.56 249.67 3.53Q250.82 3.50 251.02 3.50L251.02 3.50Q251.29 3.50 251.29 3.82L251.29 3.82Q251.29 3.91 251.20 4.38Q251.12 4.84 251.12 5.25L251.12 5.25Q251.12 5.38 251.05 5.47Q250.98 5.56 250.89 5.56L250.89 5.56Q250.68 5.56 250.68 5.26L250.68 5.26Q250.68 4.89 250.45 4.58Q250.21 4.27 249.86 4.26L249.86 4.26Q248.60 4.16 247.93 4.16L247.93 4.16L247.56 4.16Q246.83 4.16 246.72 4.26Q246.60 4.37 246.57 5.01L246.57 5.01Q246.51 6.02 246.51 7.35L246.51 7.35Q246.51 8.05 246.78 8.06L246.78 8.06L247.13 8.06L247.72 8.06L248.15 8.06Q248.99 8.06 249.27 8.01Q249.55 7.95 249.77 7.80L249.77 7.80Q250.04 7.62 250.10 7.28L250.10 7.28Q250.14 7.04 250.29 7.04L250.29 7.04Q250.42 7.04 250.45 7.08Q250.47 7.13 250.47 7.27L250.47 7.27Q250.47 7.36 250.42 7.91Q250.36 8.46 250.36 8.74L250.36 8.74Q250.36 9.00 250.38 9.24Q250.40 9.48 250.40 9.59L250.40 9.59Q250.40 9.94 250.31 9.94L250.31 9.94Q250.10 9.94 250.00 9.60L250.00 9.60Q249.80 9.02 249.65 8.92L249.65 8.92Q249.35 8.72 248.30 8.72L248.30 8.72Q247.88 8.72 247.63 8.72Q247.37 8.72 247.29 8.71Q247.21 8.71 247.16 8.71Q247.11 8.71 247.07 8.71L247.07 8.71Q246.50 8.71 246.50 8.97L246.50 8.97Q246.50 9.38 246.48 9.99Q246.47 10.60 246.47 10.99L246.47 10.99L246.47 11.55Q246.47 12.56 246.81 12.66L246.81 12.66Q247.16 12.77 247.41 12.77L247.41 12.77Q248.46 12.77 249.25 12.67Q250.04 12.57 250.44 12.42Q250.84 12.28 251.10 12.10Q251.37 11.93 251.45 11.78Q251.52 11.63 251.60 11.54Q251.68 11.44 251.76 11.44L251.76 11.44Q251.93 11.44 251.93 11.68L251.93 11.68Q251.93 12.28 251.33 12.89Q250.73 13.51 250.28 13.51L250.28 13.51Q249.27 13.51 248.00 13.44Q246.74 13.37 246.43 13.37L246.43 13.37Q246.04 13.37 245.45 13.43Q244.86 13.50 244.52 13.50L244.52 13.50Q244.23 13.50 244.23 13.36L244.23 13.36Q244.23 13.23 244.23 13.19Q244.23 13.15 244.27 13.12Q244.31 13.09 244.36 13.08Q244.41 13.08 244.54 13.03Q244.68 12.99 244.83 12.92L244.83 12.92Q245.17 12.75 245.27 12.26Q245.38 11.77 245.38 10.21L245.38 10.21L245.38 8.47Q245.38 8.09 245.40 7.29Q245.42 6.50 245.42 6.05L245.42 6.05Q245.42 5.67 245.39 4.77L245.39 4.77Q245.38 4.37 245.04 4.14Q244.71 3.92 244.26 3.91L244.26 3.91Q244.03 3.91 244.03 3.65ZM259.49 5.32L259.49 5.32Q259.49 4.76 259.63 3.88L259.63 3.88Q259.63 3.85 259.64 3.78Q259.64 3.71 259.65 3.69Q259.66 3.67 259.66 3.62Q259.67 3.57 259.69 3.55Q259.70 3.53 259.72 3.49Q259.74 3.46 259.77 3.44Q259.80 3.43 259.84 3.42Q259.88 3.40 259.94 3.39Q259.99 3.39 260.06 3.39L260.06 3.39Q260.29 3.39 261.25 3.44Q262.21 3.50 264.01 3.50L264.01 3.50Q267.09 3.50 268.32 3.43L268.32 3.43Q268.34 3.43 268.37 3.42Q268.41 3.42 268.42 3.42L268.42 3.42Q268.58 3.42 268.63 3.50Q268.69 3.58 268.69 3.65L268.69 3.65Q268.69 3.75 268.73 4.24Q268.77 4.73 268.77 4.79L268.77 4.79Q268.77 5.14 268.73 5.23Q268.69 5.32 268.55 5.32L268.55 5.32Q268.44 5.32 268.39 5.15L268.39 5.15Q268.28 4.75 268.20 4.60Q268.11 4.45 267.83 4.34Q267.55 4.23 266.98 4.23L266.98 4.23L265.16 4.23Q264.82 4.23 264.75 4.36Q264.67 4.49 264.67 5.12L264.67 5.12L264.67 5.81Q264.67 7.69 264.65 9.11Q264.63 10.54 264.63 10.93L264.63 10.93Q264.63 11.13 264.62 11.43Q264.61 11.73 264.61 11.84L264.61 11.84Q264.61 12.45 264.81 12.64L264.81 12.64Q264.99 12.81 265.22 12.90Q265.44 12.99 265.60 13.01Q265.76 13.02 265.87 13.08Q265.99 13.13 265.99 13.26L265.99 13.26Q265.99 13.41 265.92 13.45Q265.85 13.50 265.65 13.50L265.65 13.50Q265.48 13.50 264.91 13.44Q264.33 13.38 264.10 13.38L264.10 13.38Q263.93 13.38 263.42 13.43Q262.91 13.48 262.67 13.48L262.67 13.48Q262.15 13.48 262.15 13.26L262.15 13.26Q262.15 13.12 262.23 13.07Q262.32 13.02 262.56 12.98Q262.81 12.95 262.88 12.94L262.88 12.94Q263.35 12.82 263.41 12.38L263.41 12.38Q263.55 11.14 263.55 7.08L263.55 7.08L263.54 4.58Q263.54 4.31 263.38 4.25Q263.23 4.19 262.47 4.19L262.47 4.19Q261.49 4.19 261.00 4.24Q260.50 4.30 260.41 4.35Q260.33 4.40 260.22 4.54L260.22 4.54Q260.09 4.70 260.01 4.91Q259.94 5.11 259.92 5.24Q259.90 5.38 259.83 5.47Q259.77 5.56 259.64 5.56L259.64 5.56Q259.49 5.56 259.49 5.32ZM276.88 10.82L276.88 10.82Q276.88 10.53 277.07 10.53L277.07 10.53Q277.26 10.53 277.30 10.67L277.30 10.67Q277.44 11.00 277.56 11.25Q277.68 11.49 277.94 11.85Q278.21 12.21 278.52 12.44Q278.82 12.67 279.31 12.84Q279.79 13.01 280.36 13.01L280.36 13.01Q281.41 13.01 282.05 12.45Q282.69 11.90 282.69 11.00L282.69 11.00Q282.69 10.35 282.25 9.90Q281.82 9.46 281.26 9.27Q280.70 9.09 279.84 8.77Q278.98 8.46 278.43 8.13L278.43 8.13Q277.16 7.38 277.16 6.08L277.16 6.08Q277.16 4.83 278.06 4.08Q278.96 3.33 280.41 3.33L280.41 3.33Q280.94 3.33 281.67 3.56Q282.41 3.79 282.42 3.79L282.42 3.79Q282.46 3.79 282.58 3.74Q282.69 3.68 282.74 3.68L282.74 3.68Q282.93 3.68 282.95 3.79L282.95 3.79Q283.25 5.49 283.25 5.70L283.25 5.70Q283.25 6.09 283.05 6.09L283.05 6.09Q282.93 6.09 282.86 5.89L282.86 5.89Q282.69 5.49 282.53 5.24Q282.37 4.98 282.30 4.91Q282.23 4.84 281.93 4.58L281.93 4.58Q281.18 3.91 280.10 3.91L280.10 3.91Q279.23 3.91 278.64 4.33Q278.05 4.75 278.05 5.46L278.05 5.46Q278.05 6.09 278.40 6.50Q278.74 6.90 279.31 7.13Q279.89 7.35 280.52 7.55Q281.15 7.74 281.85 8.09Q282.56 8.44 283.02 8.93L283.02 8.93Q283.58 9.53 283.58 10.43L283.58 10.43Q283.58 11.90 282.65 12.76Q281.71 13.62 280.32 13.62L280.32 13.62Q279.36 13.62 278.77 13.52Q278.18 13.41 277.56 13.09L277.56 13.09Q277.38 12.98 277.13 12.00Q276.88 11.02 276.88 10.82ZM301.99 8.69L301.99 8.69Q301.99 6.34 303.41 4.84Q304.82 3.33 307.41 3.33L307.41 3.33Q308.62 3.33 309.58 3.68Q310.55 4.03 311.11 4.54Q311.67 5.05 312.05 5.71Q312.42 6.37 312.56 6.92Q312.70 7.48 312.70 7.95L312.70 7.95Q312.70 9.86 311.96 11.16Q311.22 12.47 310.01 13.07Q308.80 13.66 307.22 13.66L307.22 13.66Q305.55 13.66 304.34 12.94Q303.13 12.21 302.56 11.10Q301.99 10.00 301.99 8.69ZM303.23 7.98L303.23 7.98Q303.23 8.54 303.38 9.19Q303.53 9.84 303.88 10.54Q304.23 11.23 304.73 11.78Q305.23 12.33 305.99 12.69Q306.75 13.05 307.66 13.05L307.66 13.05Q308.14 13.05 308.66 12.90Q309.19 12.75 309.71 12.45Q310.23 12.14 310.63 11.70Q311.04 11.26 311.30 10.62Q311.56 9.98 311.56 9.24L311.56 9.24Q311.56 6.71 310.23 5.30Q308.90 3.89 306.94 3.89L306.94 3.89Q305.40 3.89 304.31 4.93Q303.23 5.96 303.23 7.98ZM320.60 3.72L320.60 3.72Q320.60 3.50 320.92 3.50L320.92 3.50Q320.96 3.50 321.08 3.49Q321.19 3.49 321.44 3.49L321.44 3.49Q321.51 3.49 321.82 3.51Q322.14 3.53 322.28 3.53L322.28 3.53Q322.59 3.53 323.47 3.51Q324.35 3.49 324.59 3.49L324.59 3.49Q325.91 3.49 326.86 4.15Q327.81 4.82 327.81 6.06L327.81 6.06Q327.81 6.75 327.56 7.29Q327.31 7.83 326.95 8.13Q326.59 8.44 326.15 8.64Q325.71 8.85 325.37 8.91Q325.02 8.97 324.76 8.97L324.76 8.97Q324.31 8.97 323.85 8.87Q323.39 8.76 323.39 8.65L323.39 8.65Q323.39 8.44 323.57 8.44L323.57 8.44Q323.64 8.44 323.86 8.50Q324.07 8.55 324.28 8.55L324.28 8.55Q324.60 8.55 324.97 8.46Q325.33 8.37 325.72 8.17Q326.12 7.97 326.37 7.55Q326.62 7.14 326.62 6.59L326.62 6.59Q326.62 5.66 325.86 4.85Q325.11 4.05 323.78 4.05L323.78 4.05Q323.34 4.05 323.19 4.30Q323.04 4.56 323.04 5.47L323.04 5.47Q323.04 8.39 323.02 8.80Q323.01 9.21 323.01 11.26L323.01 11.26Q323.01 12.49 323.58 12.87L323.58 12.87Q323.74 12.96 323.97 12.99Q324.20 13.02 324.35 13.01Q324.51 13.01 324.63 13.07Q324.74 13.13 324.74 13.30L324.74 13.30Q324.74 13.54 324.42 13.54Q324.10 13.54 323.29 13.50Q322.48 13.47 322.42 13.47L322.42 13.47Q322.28 13.47 321.87 13.50Q321.45 13.52 321.12 13.52L321.12 13.52Q320.68 13.52 320.68 13.37L320.68 13.37Q320.68 13.29 320.70 13.23Q320.73 13.17 320.75 13.14Q320.77 13.10 320.84 13.08Q320.91 13.05 320.94 13.03Q320.96 13.02 321.07 13.00Q321.17 12.98 321.22 12.96L321.22 12.96Q321.24 12.95 321.30 12.94Q321.36 12.94 321.38 12.93Q321.40 12.92 321.45 12.89Q321.50 12.85 321.52 12.79Q321.55 12.73 321.60 12.62Q321.65 12.52 321.71 12.35L321.71 12.35Q321.80 12.08 321.86 10.25Q321.92 8.41 321.92 7.41L321.92 7.41Q321.92 6.54 321.91 5.80Q321.90 5.07 321.90 5.03L321.90 5.03Q321.90 4.65 321.66 4.28Q321.43 3.91 320.88 3.91L320.88 3.91Q320.60 3.91 320.60 3.72ZM335.50 3.72L335.50 3.72Q335.50 3.50 335.82 3.50L335.82 3.50Q335.86 3.50 335.97 3.49Q336.08 3.49 336.34 3.49L336.34 3.49Q336.41 3.49 336.72 3.51Q337.04 3.53 337.18 3.53L337.18 3.53Q337.48 3.53 338.37 3.51Q339.25 3.49 339.49 3.49L339.49 3.49Q340.80 3.49 341.75 4.15Q342.71 4.82 342.71 6.06L342.71 6.06Q342.71 6.75 342.45 7.29Q342.20 7.83 341.85 8.13Q341.49 8.44 341.05 8.64Q340.61 8.85 340.26 8.91Q339.92 8.97 339.65 8.97L339.65 8.97Q339.21 8.97 338.74 8.87Q338.28 8.76 338.28 8.65L338.28 8.65Q338.28 8.44 338.46 8.44L338.46 8.44Q338.53 8.44 338.75 8.50Q338.97 8.55 339.18 8.55L339.18 8.55Q339.50 8.55 339.86 8.46Q340.23 8.37 340.62 8.17Q341.01 7.97 341.26 7.55Q341.52 7.14 341.52 6.59L341.52 6.59Q341.52 5.66 340.76 4.85Q340.00 4.05 338.67 4.05L338.67 4.05Q338.24 4.05 338.09 4.30Q337.93 4.56 337.93 5.47L337.93 5.47Q337.93 8.39 337.92 8.80Q337.90 9.21 337.90 11.26L337.90 11.26Q337.90 12.49 338.48 12.87L338.48 12.87Q338.63 12.96 338.86 12.99Q339.09 13.02 339.25 13.01Q339.40 13.01 339.52 13.07Q339.64 13.13 339.64 13.30L339.64 13.30Q339.64 13.54 339.32 13.54Q339.00 13.54 338.18 13.50Q337.37 13.47 337.32 13.47L337.32 13.47Q337.18 13.47 336.76 13.50Q336.35 13.52 336.01 13.52L336.01 13.52Q335.58 13.52 335.58 13.37L335.58 13.37Q335.58 13.29 335.60 13.23Q335.62 13.17 335.64 13.14Q335.66 13.10 335.73 13.08Q335.80 13.05 335.83 13.03Q335.86 13.02 335.97 13.00Q336.07 12.98 336.11 12.96L336.11 12.96Q336.14 12.95 336.20 12.94Q336.25 12.94 336.27 12.93Q336.29 12.92 336.34 12.89Q336.39 12.85 336.42 12.79Q336.45 12.73 336.50 12.62Q336.55 12.52 336.60 12.35L336.60 12.35Q336.70 12.08 336.76 10.25Q336.81 8.41 336.81 7.41L336.81 7.41Q336.81 6.54 336.81 5.80Q336.80 5.07 336.80 5.03L336.80 5.03Q336.80 4.65 336.56 4.28Q336.32 3.91 335.78 3.91L335.78 3.91Q335.50 3.91 335.50 3.72ZM350.73 8.69L350.73 8.69Q350.73 6.34 352.14 4.84Q353.56 3.33 356.15 3.33L356.15 3.33Q357.35 3.33 358.32 3.68Q359.28 4.03 359.84 4.54Q360.40 5.05 360.78 5.71Q361.16 6.37 361.30 6.92Q361.44 7.48 361.44 7.95L361.44 7.95Q361.44 9.86 360.70 11.16Q359.95 12.47 358.74 13.07Q357.53 13.66 355.95 13.66L355.95 13.66Q354.28 13.66 353.07 12.94Q351.86 12.21 351.30 11.10Q350.73 10.00 350.73 8.69ZM351.96 7.98L351.96 7.98Q351.96 8.54 352.11 9.19Q352.27 9.84 352.62 10.54Q352.97 11.23 353.47 11.78Q353.96 12.33 354.73 12.69Q355.49 13.05 356.40 13.05L356.40 13.05Q356.87 13.05 357.40 12.90Q357.92 12.75 358.44 12.45Q358.96 12.14 359.37 11.70Q359.77 11.26 360.03 10.62Q360.29 9.98 360.29 9.24L360.29 9.24Q360.29 6.71 358.96 5.30Q357.63 3.89 355.67 3.89L355.67 3.89Q354.13 3.89 353.05 4.93Q351.96 5.96 351.96 7.98ZM369.33 3.70L369.33 3.70Q369.33 3.47 369.74 3.47L369.74 3.47L372.06 3.47Q372.39 3.47 372.81 3.45Q373.23 3.43 373.46 3.43L373.46 3.43Q374.72 3.43 375.62 4.07Q376.52 4.70 376.52 5.78L376.52 5.78Q376.52 6.50 376.24 7.03Q375.97 7.57 375.64 7.81Q375.31 8.05 375.04 8.22Q374.77 8.40 374.77 8.46L374.77 8.46Q374.77 8.62 375.94 10.27Q377.12 11.91 377.55 12.38L377.55 12.38Q378.08 13.03 378.84 13.03L378.84 13.03Q379.04 13.03 379.04 13.20L379.04 13.20Q379.04 13.41 378.87 13.48Q378.70 13.55 378.00 13.55L378.00 13.55Q377.34 13.55 376.80 13.23L376.80 13.23Q376.10 12.82 374.43 10.09L374.43 10.09Q374.33 9.94 374.29 9.87L374.29 9.87Q373.62 8.78 373.25 8.78L373.25 8.78L372.96 8.78L372.11 8.78Q371.94 8.78 371.90 8.92Q371.87 9.06 371.87 9.77L371.87 9.77Q371.87 10.44 371.87 10.88Q371.87 11.31 371.88 11.43Q371.88 11.55 371.88 11.63Q371.88 11.70 371.88 11.75L371.88 11.75Q371.88 12.32 372.15 12.63Q372.41 12.95 372.74 13.00Q373.07 13.05 373.34 13.11Q373.60 13.17 373.60 13.31L373.60 13.31Q373.60 13.54 373.35 13.54L373.35 13.54Q373.34 13.54 372.39 13.49Q371.43 13.44 371.35 13.44L371.35 13.44Q370.94 13.44 370.38 13.47Q369.82 13.50 369.81 13.50L369.81 13.50Q369.52 13.50 369.52 13.27L369.52 13.27Q369.52 13.12 369.70 13.05Q369.88 12.99 370.10 12.96Q370.33 12.94 370.51 12.66Q370.69 12.38 370.69 11.86L370.69 11.86Q370.69 11.49 370.70 9.90Q370.71 8.30 370.71 7.45L370.71 7.45Q370.71 6.58 370.70 5.86Q370.69 5.14 370.69 5.08L370.69 5.08Q370.69 4.56 370.48 4.29Q370.27 4.02 370.01 3.98Q369.75 3.95 369.54 3.89Q369.33 3.84 369.33 3.70ZM371.87 5.54L371.87 5.94Q371.87 7.38 371.88 7.72Q371.90 8.06 371.98 8.12L371.98 8.12Q372.19 8.25 372.58 8.25L372.58 8.25L372.72 8.25L373.13 8.25Q374.32 8.25 374.83 7.70Q375.34 7.15 375.34 6.30L375.34 6.30Q375.34 5.43 374.66 4.72Q373.98 4.00 372.61 4.00L372.61 4.00Q372.09 4.00 371.98 4.28Q371.87 4.55 371.87 5.54L371.87 5.54ZM385.15 5.32L385.15 5.32Q385.15 4.76 385.29 3.88L385.29 3.88Q385.29 3.85 385.30 3.78Q385.31 3.71 385.31 3.69Q385.32 3.67 385.33 3.62Q385.34 3.57 385.35 3.55Q385.36 3.53 385.39 3.49Q385.41 3.46 385.43 3.44Q385.46 3.43 385.50 3.42Q385.55 3.40 385.60 3.39Q385.66 3.39 385.73 3.39L385.73 3.39Q385.95 3.39 386.91 3.44Q387.87 3.50 389.68 3.50L389.68 3.50Q392.76 3.50 393.99 3.43L393.99 3.43Q394.00 3.43 394.04 3.42Q394.07 3.42 394.09 3.42L394.09 3.42Q394.24 3.42 394.30 3.50Q394.35 3.58 394.35 3.65L394.35 3.65Q394.35 3.75 394.39 4.24Q394.44 4.73 394.44 4.79L394.44 4.79Q394.44 5.14 394.39 5.23Q394.35 5.32 394.21 5.32L394.21 5.32Q394.10 5.32 394.06 5.15L394.06 5.15Q393.95 4.75 393.86 4.60Q393.78 4.45 393.50 4.34Q393.22 4.23 392.64 4.23L392.64 4.23L390.82 4.23Q390.49 4.23 390.41 4.36Q390.33 4.49 390.33 5.12L390.33 5.12L390.33 5.81Q390.33 7.69 390.31 9.11Q390.29 10.54 390.29 10.93L390.29 10.93Q390.29 11.13 390.29 11.43Q390.28 11.73 390.28 11.84L390.28 11.84Q390.28 12.45 390.47 12.64L390.47 12.64Q390.66 12.81 390.88 12.90Q391.10 12.99 391.27 13.01Q391.43 13.02 391.54 13.08Q391.65 13.13 391.65 13.26L391.65 13.26Q391.65 13.41 391.58 13.45Q391.51 13.50 391.31 13.50L391.31 13.50Q391.15 13.50 390.57 13.44Q390.00 13.38 389.76 13.38L389.76 13.38Q389.59 13.38 389.08 13.43Q388.57 13.48 388.33 13.48L388.33 13.48Q387.81 13.48 387.81 13.26L387.81 13.26Q387.81 13.12 387.90 13.07Q387.98 13.02 388.23 12.98Q388.47 12.95 388.54 12.94L388.54 12.94Q389.02 12.82 389.07 12.38L389.07 12.38Q389.21 11.14 389.21 7.08L389.21 7.08L389.20 4.58Q389.20 4.31 389.05 4.25Q388.89 4.19 388.14 4.19L388.14 4.19Q387.16 4.19 386.66 4.24Q386.16 4.30 386.08 4.35Q385.99 4.40 385.88 4.54L385.88 4.54Q385.76 4.70 385.68 4.91Q385.60 5.11 385.58 5.24Q385.56 5.38 385.50 5.47Q385.43 5.56 385.31 5.56L385.31 5.56Q385.15 5.56 385.15 5.32ZM402.00 3.68L402.00 3.68Q402.00 3.61 402.01 3.58Q402.02 3.56 402.09 3.53Q402.16 3.50 402.32 3.50Q402.47 3.50 402.96 3.53Q403.45 3.56 403.90 3.56L403.90 3.56Q404.18 3.56 404.41 3.54Q404.64 3.53 405.22 3.53L405.22 3.53Q405.51 3.53 405.51 3.72L405.51 3.72Q405.51 3.85 405.41 3.88Q405.31 3.91 405.17 3.92Q405.02 3.93 404.87 4.02Q404.73 4.10 404.63 4.43Q404.53 4.76 404.53 5.32L404.53 5.32L404.53 5.71Q404.53 6.37 404.52 7.37Q404.52 8.37 404.52 8.74L404.52 8.74Q404.52 9.17 404.52 9.39Q404.53 9.62 404.56 10.04Q404.59 10.47 404.63 10.72Q404.68 10.96 404.80 11.32Q404.91 11.68 405.07 11.89Q405.23 12.10 405.48 12.35Q405.72 12.60 406.04 12.73Q406.36 12.87 406.80 12.96Q407.23 13.05 407.76 13.05L407.76 13.05Q408.21 13.05 408.46 13.03Q408.72 13.02 409.16 12.94Q409.60 12.87 409.86 12.72Q410.12 12.57 410.44 12.27Q410.77 11.97 410.96 11.54Q411.14 11.10 411.26 10.43Q411.39 9.76 411.39 8.90L411.39 8.90Q411.39 7.49 411.38 6.75Q411.38 6.01 411.38 5.94L411.38 5.94Q411.38 5.45 411.36 5.17Q411.33 4.89 411.22 4.55Q411.10 4.21 410.87 4.06L410.87 4.06Q410.73 3.96 410.51 3.93Q410.28 3.89 410.14 3.87Q410.00 3.85 410.00 3.75L410.00 3.75Q410.00 3.53 410.28 3.53L410.28 3.53Q410.37 3.53 410.83 3.54Q411.29 3.56 411.36 3.56L411.36 3.56Q411.70 3.56 412.08 3.54Q412.45 3.51 412.55 3.51L412.55 3.51Q412.85 3.51 412.85 3.70L412.85 3.70Q412.85 3.81 412.55 3.98Q412.24 4.16 412.17 4.30L412.17 4.30Q412.02 4.59 412.02 5.22L412.02 5.22Q412.02 5.32 412.03 5.62Q412.03 5.92 412.03 6.16L412.03 6.16Q412.03 8.85 411.81 10.28Q411.59 11.70 411.13 12.36Q410.68 13.01 409.77 13.40L409.77 13.40Q409.02 13.71 407.76 13.71L407.76 13.71Q405.43 13.71 404.45 12.81L404.45 12.81Q403.68 12.10 403.49 11.09Q403.31 10.09 403.31 7.64L403.31 7.64L403.31 7.41Q403.31 6.86 403.33 6.20Q403.34 5.54 403.34 5.39L403.34 5.39Q403.34 4.62 403.16 4.33Q402.98 4.05 402.30 3.95L402.30 3.95Q402.00 3.91 402.00 3.68ZM420.41 3.77L420.41 3.77Q420.41 3.68 420.50 3.60Q420.60 3.53 420.76 3.53L420.76 3.53Q420.84 3.53 421.04 3.54Q421.23 3.54 421.29 3.54L421.29 3.54Q421.50 3.54 421.68 3.53Q421.86 3.51 421.97 3.51L421.97 3.51Q422.10 3.51 422.27 3.59Q422.44 3.67 422.46 3.75L422.46 3.75Q422.49 3.79 422.62 3.94Q422.74 4.09 422.95 4.33Q423.16 4.56 423.33 4.79L423.33 4.79Q425.24 7.27 428.43 10.77L428.43 10.77Q428.51 10.86 428.63 10.99Q428.75 11.12 428.80 11.18Q428.85 11.24 428.90 11.30Q428.96 11.35 429.00 11.38Q429.03 11.40 429.06 11.40L429.06 11.40Q429.20 11.40 429.20 10.53L429.20 10.53L429.20 8.89Q429.20 7.95 429.19 7.31Q429.18 6.66 429.18 6.38Q429.17 6.09 429.17 6.02L429.17 6.02L429.17 5.92Q429.17 5.45 429.11 5.11Q429.04 4.77 428.96 4.59Q428.88 4.41 428.72 4.28Q428.55 4.16 428.44 4.12Q428.33 4.09 428.12 4.05Q427.91 4.00 427.83 3.98L427.83 3.98Q427.55 3.89 427.55 3.74L427.55 3.74Q427.55 3.53 427.81 3.53L427.81 3.53Q427.90 3.53 428.48 3.54Q429.07 3.54 429.14 3.54L429.14 3.54Q429.48 3.54 429.89 3.53Q430.30 3.51 430.40 3.51L430.40 3.51Q430.64 3.51 430.73 3.56Q430.82 3.61 430.82 3.75L430.82 3.75Q430.82 3.81 430.75 3.86Q430.67 3.91 430.58 3.94Q430.50 3.98 430.42 4.00L430.42 4.00L430.33 4.03Q429.87 4.28 429.87 5.61L429.87 5.61L429.87 6.15Q429.87 7.21 429.79 9.83Q429.72 12.46 429.72 13.08L429.72 13.08L429.72 13.36Q429.72 13.68 429.52 13.68L429.52 13.68Q429.39 13.68 429.30 13.58L429.30 13.58Q424.65 8.19 423.75 7.17Q422.84 6.16 422.74 6.16L422.74 6.16Q422.60 6.16 422.60 7.11L422.60 7.11Q422.60 8.44 422.55 9.97Q422.49 11.51 422.49 11.65L422.49 11.65Q422.49 12.28 422.71 12.61Q422.93 12.94 423.18 12.98Q423.43 13.02 423.65 13.07Q423.86 13.12 423.86 13.26L423.86 13.26Q423.86 13.41 423.82 13.45Q423.77 13.50 423.64 13.50L423.64 13.50Q423.54 13.50 423.20 13.48Q422.86 13.47 422.14 13.47L422.14 13.47Q422.02 13.47 421.62 13.48Q421.23 13.50 420.95 13.50L420.95 13.50Q420.64 13.50 420.64 13.27L420.64 13.27Q420.64 13.15 420.83 13.11Q421.01 13.08 421.27 12.89Q421.54 12.71 421.68 12.21L421.68 12.21Q421.76 11.89 421.89 9.60Q422.02 7.32 422.02 6.45L422.02 6.45Q422.02 5.25 421.68 4.65Q421.34 4.06 420.59 3.98L420.59 3.98Q420.41 3.96 420.41 3.77ZM438.58 3.71L438.58 3.71Q438.58 3.50 438.97 3.50L438.97 3.50Q439.11 3.50 439.61 3.53Q440.12 3.56 440.55 3.56L440.55 3.56Q440.82 3.56 441.06 3.54Q441.31 3.53 441.78 3.53L441.78 3.53Q442.16 3.53 442.16 3.72L442.16 3.72Q442.16 3.84 441.52 4.10L441.52 4.10Q441.07 4.28 441.07 5.71L441.07 5.71Q441.07 7.60 441.05 9.05Q441.03 10.50 441.03 10.89L441.03 10.89Q441.03 12.07 441.38 12.59L441.38 12.59Q441.69 13.02 442.05 13.02L442.05 13.02Q442.08 13.02 442.19 13.03Q442.30 13.03 442.33 13.03L442.33 13.03Q442.43 13.03 442.53 13.08Q442.62 13.13 442.62 13.19L442.62 13.19Q442.62 13.34 442.55 13.39Q442.47 13.44 442.27 13.44L442.27 13.44Q441.85 13.44 441.50 13.41Q441.14 13.38 440.94 13.38L440.94 13.38Q440.55 13.38 440.09 13.42Q439.63 13.45 439.40 13.45L439.40 13.45Q438.77 13.45 438.77 13.24L438.77 13.24Q438.77 13.12 438.91 13.07Q439.04 13.02 439.21 13.00Q439.38 12.98 439.56 12.82Q439.74 12.66 439.81 12.35L439.81 12.35Q439.84 12.25 439.90 10.76Q439.96 9.27 439.96 8.61L439.96 8.61L439.96 7.81Q439.96 7.63 439.97 7.12Q439.98 6.61 439.98 6.30L439.98 6.30L439.98 5.66Q439.98 5.04 439.92 4.63L439.92 4.63Q439.88 4.30 439.55 4.12Q439.22 3.93 438.87 3.92L438.87 3.92Q438.58 3.91 438.58 3.71ZM450.17 5.32L450.17 5.32Q450.17 4.76 450.31 3.88L450.31 3.88Q450.31 3.85 450.32 3.78Q450.32 3.71 450.33 3.69Q450.34 3.67 450.35 3.62Q450.35 3.57 450.37 3.55Q450.38 3.53 450.40 3.49Q450.42 3.46 450.45 3.44Q450.48 3.43 450.52 3.42Q450.56 3.40 450.62 3.39Q450.67 3.39 450.74 3.39L450.74 3.39Q450.97 3.39 451.93 3.44Q452.89 3.50 454.69 3.50L454.69 3.50Q457.77 3.50 459.00 3.43L459.00 3.43Q459.02 3.43 459.05 3.42Q459.09 3.42 459.10 3.42L459.10 3.42Q459.26 3.42 459.31 3.50Q459.37 3.58 459.37 3.65L459.37 3.65Q459.37 3.75 459.41 4.24Q459.45 4.73 459.45 4.79L459.45 4.79Q459.45 5.14 459.41 5.23Q459.37 5.32 459.23 5.32L459.23 5.32Q459.12 5.32 459.07 5.15L459.07 5.15Q458.96 4.75 458.88 4.60Q458.79 4.45 458.51 4.34Q458.23 4.23 457.66 4.23L457.66 4.23L455.84 4.23Q455.50 4.23 455.43 4.36Q455.35 4.49 455.35 5.12L455.35 5.12L455.35 5.81Q455.35 7.69 455.33 9.11Q455.31 10.54 455.31 10.93L455.31 10.93Q455.31 11.13 455.30 11.43Q455.29 11.73 455.29 11.84L455.29 11.84Q455.29 12.45 455.49 12.64L455.49 12.64Q455.67 12.81 455.90 12.90Q456.12 12.99 456.28 13.01Q456.44 13.02 456.55 13.08Q456.67 13.13 456.67 13.26L456.67 13.26Q456.67 13.41 456.60 13.45Q456.53 13.50 456.33 13.50L456.33 13.50Q456.16 13.50 455.59 13.44Q455.01 13.38 454.78 13.38L454.78 13.38Q454.61 13.38 454.10 13.43Q453.59 13.48 453.35 13.48L453.35 13.48Q452.83 13.48 452.83 13.26L452.83 13.26Q452.83 13.12 452.91 13.07Q453.00 13.02 453.24 12.98Q453.49 12.95 453.56 12.94L453.56 12.94Q454.03 12.82 454.09 12.38L454.09 12.38Q454.23 11.14 454.23 7.08L454.23 7.08L454.22 4.58Q454.22 4.31 454.06 4.25Q453.91 4.19 453.15 4.19L453.15 4.19Q452.17 4.19 451.68 4.24Q451.18 4.30 451.09 4.35Q451.01 4.40 450.90 4.54L450.90 4.54Q450.77 4.70 450.70 4.91Q450.62 5.11 450.60 5.24Q450.58 5.38 450.51 5.47Q450.45 5.56 450.32 5.56L450.32 5.56Q450.17 5.56 450.17 5.32ZM467.01 3.81L467.01 3.81Q467.01 3.65 467.17 3.61Q467.33 3.57 467.88 3.57L467.88 3.57Q467.96 3.57 468.27 3.58Q468.57 3.60 468.69 3.60L468.69 3.60Q468.85 3.60 469.26 3.59Q469.67 3.58 469.88 3.58L469.88 3.58Q470.58 3.58 470.58 3.75L470.58 3.75Q470.58 3.91 470.29 4.01Q469.99 4.12 469.99 4.24L469.99 4.24Q469.99 4.38 470.09 4.61Q470.18 4.83 470.27 4.97Q470.36 5.11 470.54 5.38Q470.72 5.64 470.75 5.70L470.75 5.70Q471.23 6.45 471.74 7.14Q472.25 7.83 472.32 7.83L472.32 7.83Q472.40 7.83 472.53 7.66Q472.65 7.50 472.88 7.13Q473.10 6.75 473.26 6.52L473.26 6.52Q473.30 6.45 473.46 6.22Q473.62 5.98 473.68 5.88Q473.75 5.78 473.87 5.58Q474.00 5.38 474.05 5.27Q474.11 5.17 474.19 5.02Q474.26 4.87 474.29 4.77Q474.32 4.68 474.32 4.59L474.32 4.59Q474.32 4.14 473.84 4.03L473.84 4.03Q473.79 4.02 473.68 4.00Q473.58 3.99 473.53 3.98Q473.48 3.96 473.41 3.93Q473.34 3.91 473.31 3.86Q473.28 3.81 473.28 3.74L473.28 3.74Q473.28 3.57 473.68 3.57L473.68 3.57Q473.75 3.57 473.94 3.58Q474.12 3.58 474.25 3.58L474.25 3.58Q474.57 3.58 475.03 3.59Q475.48 3.60 475.73 3.60L475.73 3.60Q476.42 3.60 476.42 3.81L476.42 3.81Q476.42 3.86 476.34 3.91Q476.25 3.95 476.10 4.02Q475.94 4.09 475.82 4.19L475.82 4.19Q475.24 4.63 474.13 6.31Q473.02 7.99 472.86 8.19L472.86 8.19Q472.64 8.47 472.58 8.81Q472.53 9.14 472.53 9.95L472.53 9.95Q472.53 10.14 472.54 10.73Q472.54 11.33 472.54 11.58L472.54 11.58L472.54 11.91Q472.54 12.38 472.70 12.64Q472.86 12.91 473.00 12.96Q473.14 13.01 473.28 13.01L473.28 13.01Q473.31 13.01 473.42 13.01Q473.54 13.02 473.56 13.02L473.56 13.02Q473.66 13.02 473.72 13.08Q473.77 13.15 473.77 13.22L473.77 13.22Q473.77 13.36 473.70 13.40Q473.63 13.44 473.44 13.44L473.44 13.44Q473.37 13.44 472.83 13.43Q472.29 13.43 472.04 13.43L472.04 13.43Q471.55 13.43 471.14 13.45Q470.74 13.48 470.50 13.48L470.50 13.48Q470.11 13.48 470.11 13.33L470.11 13.33Q470.11 13.20 470.18 13.15Q470.26 13.10 470.44 13.09Q470.62 13.08 470.71 13.05L470.71 13.05Q471.30 12.87 471.30 12.19L471.30 12.19Q471.30 12.11 471.30 11.92Q471.31 11.73 471.32 11.12Q471.32 10.50 471.32 9.35L471.32 9.35Q471.32 9.13 471.29 8.97Q471.25 8.81 471.21 8.65Q471.16 8.50 470.97 8.20Q470.78 7.91 470.60 7.64Q470.41 7.36 469.97 6.72Q469.53 6.08 469.13 5.46L469.13 5.46Q468.69 4.80 468.34 4.46Q467.99 4.12 467.80 4.05Q467.61 3.99 467.36 3.99L467.36 3.99Q467.01 3.99 467.01 3.81Z"></path></g></svg>